<?xml version="1.0" encoding="UTF-8" standalone="no"?>
<!DOCTYPE svg PUBLIC "-//W3C//DTD SVG 1.1//EN"
 "http://www.w3.org/Graphics/SVG/1.1/DTD/svg11.dtd">
<!-- Generated by graphviz version 2.40.1 (20161225.0304)
 -->
<!-- Title: torch&#45;jit&#45;export Pages: 1 -->
<svg width="3519pt" height="314pt"
 viewBox="0.00 0.00 3518.89 314.00" xmlns="http://www.w3.org/2000/svg" xmlns:xlink="http://www.w3.org/1999/xlink">
<g id="graph0" class="graph" transform="scale(1 1) rotate(0) translate(4 310)">
<title>torch&#45;jit&#45;export</title>
<polygon fill="#ffffff" stroke="transparent" points="-4,4 -4,-310 3514.8852,-310 3514.8852,4 -4,4"/>
<!-- Conv_0/Conv (op#0)\n input0 input.1\n input1 conv1.weight\n input2 conv1.bias\n output0 9 -->
<g id="node1" class="node">
<title>Conv_0/Conv (op#0)\n input0 input.1\n input1 conv1.weight\n input2 conv1.bias\n output0 9</title>
<g id="a_node1"><a xlink:href="javascript:alert('')" xlink:title="Conv_0/Conv (op#0)\n input0 input.1\n input1 conv1.weight\n input2 conv1.bias\n output0 9">
<polygon fill="#0f9d58" stroke="#0f9d58" points="363,-113.5 195,-113.5 195,-30.5 363,-30.5 363,-113.5"/>
<text text-anchor="middle" x="279" y="-98.3" font-family="Times,serif" font-size="14.00" fill="#ffffff">Conv_0/Conv (op#0)</text>
<text text-anchor="middle" x="279" y="-83.3" font-family="Times,serif" font-size="14.00" fill="#ffffff"> input0 input.1</text>
<text text-anchor="middle" x="279" y="-68.3" font-family="Times,serif" font-size="14.00" fill="#ffffff"> input1 conv1.weight</text>
<text text-anchor="middle" x="279" y="-53.3" font-family="Times,serif" font-size="14.00" fill="#ffffff"> input2 conv1.bias</text>
<text text-anchor="middle" x="279" y="-38.3" font-family="Times,serif" font-size="14.00" fill="#ffffff"> output0 9</text>
</a>
</g>
</g>
<!-- 90 -->
<g id="node2" class="node">
<title>90</title>
<polygon fill="none" stroke="#000000" points="453,-64.5442 453,-79.4558 437.1838,-90 414.8162,-90 399,-79.4558 399,-64.5442 414.8162,-54 437.1838,-54 453,-64.5442"/>
<text text-anchor="middle" x="426" y="-68.3" font-family="Times,serif" font-size="14.00" fill="#000000">9</text>
</g>
<!-- Conv_0/Conv (op#0)\n input0 input.1\n input1 conv1.weight\n input2 conv1.bias\n output0 9&#45;&gt;90 -->
<g id="edge1" class="edge">
<title>Conv_0/Conv (op#0)\n input0 input.1\n input1 conv1.weight\n input2 conv1.bias\n output0 9&#45;&gt;90</title>
<path fill="none" stroke="#000000" d="M363.2324,-72C372.053,-72 380.6629,-72 388.5391,-72"/>
<polygon fill="#000000" stroke="#000000" points="388.7755,-75.5001 398.7755,-72 388.7754,-68.5001 388.7755,-75.5001"/>
</g>
<!-- Selu_1/Selu (op#1)\n input0 9\n output0 10 -->
<g id="node6" class="node">
<title>Selu_1/Selu (op#1)\n input0 9\n output0 10</title>
<g id="a_node6"><a xlink:href="javascript:alert('')" xlink:title="Selu_1/Selu (op#1)\n input0 9\n output0 10">
<polygon fill="#0f9d58" stroke="#0f9d58" points="643,-98.5 489,-98.5 489,-45.5 643,-45.5 643,-98.5"/>
<text text-anchor="middle" x="566" y="-83.3" font-family="Times,serif" font-size="14.00" fill="#ffffff">Selu_1/Selu (op#1)</text>
<text text-anchor="middle" x="566" y="-68.3" font-family="Times,serif" font-size="14.00" fill="#ffffff"> input0 9</text>
<text text-anchor="middle" x="566" y="-53.3" font-family="Times,serif" font-size="14.00" fill="#ffffff"> output0 10</text>
</a>
</g>
</g>
<!-- 90&#45;&gt;Selu_1/Selu (op#1)\n input0 9\n output0 10 -->
<g id="edge5" class="edge">
<title>90&#45;&gt;Selu_1/Selu (op#1)\n input0 9\n output0 10</title>
<path fill="none" stroke="#000000" d="M453.3258,-72C460.9811,-72 469.7377,-72 478.9113,-72"/>
<polygon fill="#000000" stroke="#000000" points="478.997,-75.5001 488.9969,-72 478.9969,-68.5001 478.997,-75.5001"/>
</g>
<!-- input.10 -->
<g id="node3" class="node">
<title>input.10</title>
<polygon fill="none" stroke="#000000" points="127.5,-118.5442 127.5,-133.4558 99.3823,-144 59.6177,-144 31.5,-133.4558 31.5,-118.5442 59.6177,-108 99.3823,-108 127.5,-118.5442"/>
<text text-anchor="middle" x="79.5" y="-122.3" font-family="Times,serif" font-size="14.00" fill="#000000">input.1</text>
</g>
<!-- input.10&#45;&gt;Conv_0/Conv (op#0)\n input0 input.1\n input1 conv1.weight\n input2 conv1.bias\n output0 9 -->
<g id="edge2" class="edge">
<title>input.10&#45;&gt;Conv_0/Conv (op#0)\n input0 input.1\n input1 conv1.weight\n input2 conv1.bias\n output0 9</title>
<path fill="none" stroke="#000000" d="M119.3923,-115.2021C138.2965,-110.0852 161.7522,-103.7362 184.8105,-97.4949"/>
<polygon fill="#000000" stroke="#000000" points="185.9157,-100.8218 194.6538,-94.8305 184.0867,-94.0649 185.9157,-100.8218"/>
</g>
<!-- conv1.weight0 -->
<g id="node4" class="node">
<title>conv1.weight0</title>
<polygon fill="none" stroke="#000000" points="159,-64.5442 159,-79.4558 112.43,-90 46.57,-90 0,-79.4558 0,-64.5442 46.57,-54 112.43,-54 159,-64.5442"/>
<text text-anchor="middle" x="79.5" y="-68.3" font-family="Times,serif" font-size="14.00" fill="#000000">conv1.weight</text>
</g>
<!-- conv1.weight0&#45;&gt;Conv_0/Conv (op#0)\n input0 input.1\n input1 conv1.weight\n input2 conv1.bias\n output0 9 -->
<g id="edge3" class="edge">
<title>conv1.weight0&#45;&gt;Conv_0/Conv (op#0)\n input0 input.1\n input1 conv1.weight\n input2 conv1.bias\n output0 9</title>
<path fill="none" stroke="#000000" d="M159.2078,-72C167.6326,-72 176.2564,-72 184.8251,-72"/>
<polygon fill="#000000" stroke="#000000" points="184.8436,-75.5001 194.8435,-72 184.8435,-68.5001 184.8436,-75.5001"/>
</g>
<!-- conv1.bias0 -->
<g id="node5" class="node">
<title>conv1.bias0</title>
<polygon fill="none" stroke="#000000" points="145,-10.5442 145,-25.4558 106.631,-36 52.369,-36 14,-25.4558 14,-10.5442 52.369,0 106.631,0 145,-10.5442"/>
<text text-anchor="middle" x="79.5" y="-14.3" font-family="Times,serif" font-size="14.00" fill="#000000">conv1.bias</text>
</g>
<!-- conv1.bias0&#45;&gt;Conv_0/Conv (op#0)\n input0 input.1\n input1 conv1.weight\n input2 conv1.bias\n output0 9 -->
<g id="edge4" class="edge">
<title>conv1.bias0&#45;&gt;Conv_0/Conv (op#0)\n input0 input.1\n input1 conv1.weight\n input2 conv1.bias\n output0 9</title>
<path fill="none" stroke="#000000" d="M126.2739,-30.6606C143.9711,-35.4508 164.8024,-41.0894 185.2924,-46.6355"/>
<polygon fill="#000000" stroke="#000000" points="184.4209,-50.0255 194.9881,-49.2599 186.2499,-43.2687 184.4209,-50.0255"/>
</g>
<!-- 100 -->
<g id="node7" class="node">
<title>100</title>
<polygon fill="none" stroke="#000000" points="785.5,-64.5442 785.5,-79.4558 769.6838,-90 747.3162,-90 731.5,-79.4558 731.5,-64.5442 747.3162,-54 769.6838,-54 785.5,-64.5442"/>
<text text-anchor="middle" x="758.5" y="-68.3" font-family="Times,serif" font-size="14.00" fill="#000000">10</text>
</g>
<!-- Selu_1/Selu (op#1)\n input0 9\n output0 10&#45;&gt;100 -->
<g id="edge6" class="edge">
<title>Selu_1/Selu (op#1)\n input0 9\n output0 10&#45;&gt;100</title>
<path fill="none" stroke="#000000" d="M643.1879,-72C669.9752,-72 698.8146,-72 720.9514,-72"/>
<polygon fill="#000000" stroke="#000000" points="721.2418,-75.5001 731.2418,-72 721.2418,-68.5001 721.2418,-75.5001"/>
</g>
<!-- Conv_2/Conv (op#2)\n input0 10\n input1 conv2.weight\n input2 conv2.bias\n output0 11 -->
<g id="node8" class="node">
<title>Conv_2/Conv (op#2)\n input0 10\n input1 conv2.weight\n input2 conv2.bias\n output0 11</title>
<g id="a_node8"><a xlink:href="javascript:alert('')" xlink:title="Conv_2/Conv (op#2)\n input0 10\n input1 conv2.weight\n input2 conv2.bias\n output0 11">
<polygon fill="#0f9d58" stroke="#0f9d58" points="1042,-167.5 874,-167.5 874,-84.5 1042,-84.5 1042,-167.5"/>
<text text-anchor="middle" x="958" y="-152.3" font-family="Times,serif" font-size="14.00" fill="#ffffff">Conv_2/Conv (op#2)</text>
<text text-anchor="middle" x="958" y="-137.3" font-family="Times,serif" font-size="14.00" fill="#ffffff"> input0 10</text>
<text text-anchor="middle" x="958" y="-122.3" font-family="Times,serif" font-size="14.00" fill="#ffffff"> input1 conv2.weight</text>
<text text-anchor="middle" x="958" y="-107.3" font-family="Times,serif" font-size="14.00" fill="#ffffff"> input2 conv2.bias</text>
<text text-anchor="middle" x="958" y="-92.3" font-family="Times,serif" font-size="14.00" fill="#ffffff"> output0 11</text>
</a>
</g>
</g>
<!-- 100&#45;&gt;Conv_2/Conv (op#2)\n input0 10\n input1 conv2.weight\n input2 conv2.bias\n output0 11 -->
<g id="edge7" class="edge">
<title>100&#45;&gt;Conv_2/Conv (op#2)\n input0 10\n input1 conv2.weight\n input2 conv2.bias\n output0 11</title>
<path fill="none" stroke="#000000" d="M785.8213,-79.3952C806.243,-84.9229 835.4522,-92.8292 864.0271,-100.5637"/>
<polygon fill="#000000" stroke="#000000" points="863.1127,-103.9421 873.6798,-103.1765 864.9417,-97.1852 863.1127,-103.9421"/>
</g>
<!-- 110 -->
<g id="node9" class="node">
<title>110</title>
<polygon fill="none" stroke="#000000" points="1132,-118.5442 1132,-133.4558 1116.1838,-144 1093.8162,-144 1078,-133.4558 1078,-118.5442 1093.8162,-108 1116.1838,-108 1132,-118.5442"/>
<text text-anchor="middle" x="1105" y="-122.3" font-family="Times,serif" font-size="14.00" fill="#000000">11</text>
</g>
<!-- Conv_2/Conv (op#2)\n input0 10\n input1 conv2.weight\n input2 conv2.bias\n output0 11&#45;&gt;110 -->
<g id="edge8" class="edge">
<title>Conv_2/Conv (op#2)\n input0 10\n input1 conv2.weight\n input2 conv2.bias\n output0 11&#45;&gt;110</title>
<path fill="none" stroke="#000000" d="M1042.2324,-126C1051.053,-126 1059.6629,-126 1067.5391,-126"/>
<polygon fill="#000000" stroke="#000000" points="1067.7755,-129.5001 1077.7755,-126 1067.7754,-122.5001 1067.7755,-129.5001"/>
</g>
<!-- Selu_3/Selu (op#3)\n input0 11\n output0 12 -->
<g id="node12" class="node">
<title>Selu_3/Selu (op#3)\n input0 11\n output0 12</title>
<g id="a_node12"><a xlink:href="javascript:alert('')" xlink:title="Selu_3/Selu (op#3)\n input0 11\n output0 12">
<polygon fill="#0f9d58" stroke="#0f9d58" points="1322,-152.5 1168,-152.5 1168,-99.5 1322,-99.5 1322,-152.5"/>
<text text-anchor="middle" x="1245" y="-137.3" font-family="Times,serif" font-size="14.00" fill="#ffffff">Selu_3/Selu (op#3)</text>
<text text-anchor="middle" x="1245" y="-122.3" font-family="Times,serif" font-size="14.00" fill="#ffffff"> input0 11</text>
<text text-anchor="middle" x="1245" y="-107.3" font-family="Times,serif" font-size="14.00" fill="#ffffff"> output0 12</text>
</a>
</g>
</g>
<!-- 110&#45;&gt;Selu_3/Selu (op#3)\n input0 11\n output0 12 -->
<g id="edge11" class="edge">
<title>110&#45;&gt;Selu_3/Selu (op#3)\n input0 11\n output0 12</title>
<path fill="none" stroke="#000000" d="M1132.3258,-126C1139.9811,-126 1148.7377,-126 1157.9113,-126"/>
<polygon fill="#000000" stroke="#000000" points="1157.997,-129.5001 1167.9969,-126 1157.9969,-122.5001 1157.997,-129.5001"/>
</g>
<!-- conv2.weight0 -->
<g id="node10" class="node">
<title>conv2.weight0</title>
<polygon fill="none" stroke="#000000" points="838,-172.5442 838,-187.4558 791.43,-198 725.57,-198 679,-187.4558 679,-172.5442 725.57,-162 791.43,-162 838,-172.5442"/>
<text text-anchor="middle" x="758.5" y="-176.3" font-family="Times,serif" font-size="14.00" fill="#000000">conv2.weight</text>
</g>
<!-- conv2.weight0&#45;&gt;Conv_2/Conv (op#2)\n input0 10\n input1 conv2.weight\n input2 conv2.bias\n output0 11 -->
<g id="edge9" class="edge">
<title>conv2.weight0&#45;&gt;Conv_2/Conv (op#2)\n input0 10\n input1 conv2.weight\n input2 conv2.bias\n output0 11</title>
<path fill="none" stroke="#000000" d="M809.8762,-166.0937C826.4911,-161.5964 845.4685,-156.4596 864.1677,-151.3982"/>
<polygon fill="#000000" stroke="#000000" points="865.1686,-154.7533 873.9068,-148.7621 863.3396,-147.9965 865.1686,-154.7533"/>
</g>
<!-- conv2.bias0 -->
<g id="node11" class="node">
<title>conv2.bias0</title>
<polygon fill="none" stroke="#000000" points="824,-118.5442 824,-133.4558 785.631,-144 731.369,-144 693,-133.4558 693,-118.5442 731.369,-108 785.631,-108 824,-118.5442"/>
<text text-anchor="middle" x="758.5" y="-122.3" font-family="Times,serif" font-size="14.00" fill="#000000">conv2.bias</text>
</g>
<!-- conv2.bias0&#45;&gt;Conv_2/Conv (op#2)\n input0 10\n input1 conv2.weight\n input2 conv2.bias\n output0 11 -->
<g id="edge10" class="edge">
<title>conv2.bias0&#45;&gt;Conv_2/Conv (op#2)\n input0 10\n input1 conv2.weight\n input2 conv2.bias\n output0 11</title>
<path fill="none" stroke="#000000" d="M824.1001,-126C836.77,-126 850.2758,-126 863.6517,-126"/>
<polygon fill="#000000" stroke="#000000" points="863.8391,-129.5001 873.839,-126 863.839,-122.5001 863.8391,-129.5001"/>
</g>
<!-- 120 -->
<g id="node13" class="node">
<title>120</title>
<polygon fill="none" stroke="#000000" points="1412,-118.5442 1412,-133.4558 1396.1838,-144 1373.8162,-144 1358,-133.4558 1358,-118.5442 1373.8162,-108 1396.1838,-108 1412,-118.5442"/>
<text text-anchor="middle" x="1385" y="-122.3" font-family="Times,serif" font-size="14.00" fill="#000000">12</text>
</g>
<!-- Selu_3/Selu (op#3)\n input0 11\n output0 12&#45;&gt;120 -->
<g id="edge12" class="edge">
<title>Selu_3/Selu (op#3)\n input0 11\n output0 12&#45;&gt;120</title>
<path fill="none" stroke="#000000" d="M1322.3706,-126C1331.2527,-126 1339.9747,-126 1347.9561,-126"/>
<polygon fill="#000000" stroke="#000000" points="1347.9729,-129.5001 1357.9729,-126 1347.9729,-122.5001 1347.9729,-129.5001"/>
</g>
<!-- MaxPool_4/MaxPool (op#4)\n input0 12\n output0 13 -->
<g id="node14" class="node">
<title>MaxPool_4/MaxPool (op#4)\n input0 12\n output0 13</title>
<g id="a_node14"><a xlink:href="javascript:alert('')" xlink:title="MaxPool_4/MaxPool (op#4)\n input0 12\n output0 13">
<polygon fill="#0f9d58" stroke="#0f9d58" points="1660,-152.5 1448,-152.5 1448,-99.5 1660,-99.5 1660,-152.5"/>
<text text-anchor="middle" x="1554" y="-137.3" font-family="Times,serif" font-size="14.00" fill="#ffffff">MaxPool_4/MaxPool (op#4)</text>
<text text-anchor="middle" x="1554" y="-122.3" font-family="Times,serif" font-size="14.00" fill="#ffffff"> input0 12</text>
<text text-anchor="middle" x="1554" y="-107.3" font-family="Times,serif" font-size="14.00" fill="#ffffff"> output0 13</text>
</a>
</g>
</g>
<!-- 120&#45;&gt;MaxPool_4/MaxPool (op#4)\n input0 12\n output0 13 -->
<g id="edge13" class="edge">
<title>120&#45;&gt;MaxPool_4/MaxPool (op#4)\n input0 12\n output0 13</title>
<path fill="none" stroke="#000000" d="M1412.1528,-126C1419.6901,-126 1428.3801,-126 1437.6713,-126"/>
<polygon fill="#000000" stroke="#000000" points="1437.9632,-129.5001 1447.9631,-126 1437.9631,-122.5001 1437.9632,-129.5001"/>
</g>
<!-- 130 -->
<g id="node15" class="node">
<title>130</title>
<polygon fill="none" stroke="#000000" points="1750,-118.5442 1750,-133.4558 1734.1838,-144 1711.8162,-144 1696,-133.4558 1696,-118.5442 1711.8162,-108 1734.1838,-108 1750,-118.5442"/>
<text text-anchor="middle" x="1723" y="-122.3" font-family="Times,serif" font-size="14.00" fill="#000000">13</text>
</g>
<!-- MaxPool_4/MaxPool (op#4)\n input0 12\n output0 13&#45;&gt;130 -->
<g id="edge14" class="edge">
<title>MaxPool_4/MaxPool (op#4)\n input0 12\n output0 13&#45;&gt;130</title>
<path fill="none" stroke="#000000" d="M1660.0706,-126C1669.0981,-126 1677.7736,-126 1685.6462,-126"/>
<polygon fill="#000000" stroke="#000000" points="1685.8414,-129.5001 1695.8414,-126 1685.8413,-122.5001 1685.8414,-129.5001"/>
</g>
<!-- Flatten_5/Flatten (op#5)\n input0 13\n output0 14 -->
<g id="node16" class="node">
<title>Flatten_5/Flatten (op#5)\n input0 13\n output0 14</title>
<g id="a_node16"><a xlink:href="javascript:alert('')" xlink:title="Flatten_5/Flatten (op#5)\n input0 13\n output0 14">
<polygon fill="#0f9d58" stroke="#0f9d58" points="1980,-152.5 1786,-152.5 1786,-99.5 1980,-99.5 1980,-152.5"/>
<text text-anchor="middle" x="1883" y="-137.3" font-family="Times,serif" font-size="14.00" fill="#ffffff">Flatten_5/Flatten (op#5)</text>
<text text-anchor="middle" x="1883" y="-122.3" font-family="Times,serif" font-size="14.00" fill="#ffffff"> input0 13</text>
<text text-anchor="middle" x="1883" y="-107.3" font-family="Times,serif" font-size="14.00" fill="#ffffff"> output0 14</text>
</a>
</g>
</g>
<!-- 130&#45;&gt;Flatten_5/Flatten (op#5)\n input0 13\n output0 14 -->
<g id="edge15" class="edge">
<title>130&#45;&gt;Flatten_5/Flatten (op#5)\n input0 13\n output0 14</title>
<path fill="none" stroke="#000000" d="M1750.1418,-126C1757.6715,-126 1766.3319,-126 1775.5452,-126"/>
<polygon fill="#000000" stroke="#000000" points="1775.7322,-129.5001 1785.7322,-126 1775.7322,-122.5001 1775.7322,-129.5001"/>
</g>
<!-- 140 -->
<g id="node17" class="node">
<title>140</title>
<polygon fill="none" stroke="#000000" points="2107.7213,-118.5442 2107.7213,-133.4558 2091.9051,-144 2069.5375,-144 2053.7213,-133.4558 2053.7213,-118.5442 2069.5375,-108 2091.9051,-108 2107.7213,-118.5442"/>
<text text-anchor="middle" x="2080.7213" y="-122.3" font-family="Times,serif" font-size="14.00" fill="#000000">14</text>
</g>
<!-- Flatten_5/Flatten (op#5)\n input0 13\n output0 14&#45;&gt;140 -->
<g id="edge16" class="edge">
<title>Flatten_5/Flatten (op#5)\n input0 13\n output0 14&#45;&gt;140</title>
<path fill="none" stroke="#000000" d="M1980.1229,-126C2002.6553,-126 2025.3081,-126 2043.3973,-126"/>
<polygon fill="#000000" stroke="#000000" points="2043.4852,-129.5001 2053.4852,-126 2043.4851,-122.5001 2043.4852,-129.5001"/>
</g>
<!-- Gemm_6/Gemm (op#6)\n input0 14\n input1 fc1.weight\n input2 fc1.bias\n output0 15 -->
<g id="node18" class="node">
<title>Gemm_6/Gemm (op#6)\n input0 14\n input1 fc1.weight\n input2 fc1.bias\n output0 15</title>
<g id="a_node18"><a xlink:href="javascript:alert('')" xlink:title="Gemm_6/Gemm (op#6)\n input0 14\n input1 fc1.weight\n input2 fc1.bias\n output0 15">
<polygon fill="#0f9d58" stroke="#0f9d58" points="2365.4426,-221.5 2181.4426,-221.5 2181.4426,-138.5 2365.4426,-138.5 2365.4426,-221.5"/>
<text text-anchor="middle" x="2273.4426" y="-206.3" font-family="Times,serif" font-size="14.00" fill="#ffffff">Gemm_6/Gemm (op#6)</text>
<text text-anchor="middle" x="2273.4426" y="-191.3" font-family="Times,serif" font-size="14.00" fill="#ffffff"> input0 14</text>
<text text-anchor="middle" x="2273.4426" y="-176.3" font-family="Times,serif" font-size="14.00" fill="#ffffff"> input1 fc1.weight</text>
<text text-anchor="middle" x="2273.4426" y="-161.3" font-family="Times,serif" font-size="14.00" fill="#ffffff"> input2 fc1.bias</text>
<text text-anchor="middle" x="2273.4426" y="-146.3" font-family="Times,serif" font-size="14.00" fill="#ffffff"> output0 15</text>
</a>
</g>
</g>
<!-- 140&#45;&gt;Gemm_6/Gemm (op#6)\n input0 14\n input1 fc1.weight\n input2 fc1.bias\n output0 15 -->
<g id="edge17" class="edge">
<title>140&#45;&gt;Gemm_6/Gemm (op#6)\n input0 14\n input1 fc1.weight\n input2 fc1.bias\n output0 15</title>
<path fill="none" stroke="#000000" d="M2107.9248,-133.6224C2124.8867,-138.375 2147.891,-144.8208 2171.3499,-151.3939"/>
<polygon fill="#000000" stroke="#000000" points="2170.484,-154.786 2181.0575,-154.1139 2172.3727,-148.0456 2170.484,-154.786"/>
</g>
<!-- 150 -->
<g id="node19" class="node">
<title>150</title>
<polygon fill="none" stroke="#000000" points="2455.4426,-172.5442 2455.4426,-187.4558 2439.6264,-198 2417.2589,-198 2401.4426,-187.4558 2401.4426,-172.5442 2417.2589,-162 2439.6264,-162 2455.4426,-172.5442"/>
<text text-anchor="middle" x="2428.4426" y="-176.3" font-family="Times,serif" font-size="14.00" fill="#000000">15</text>
</g>
<!-- Gemm_6/Gemm (op#6)\n input0 14\n input1 fc1.weight\n input2 fc1.bias\n output0 15&#45;&gt;150 -->
<g id="edge18" class="edge">
<title>Gemm_6/Gemm (op#6)\n input0 14\n input1 fc1.weight\n input2 fc1.bias\n output0 15&#45;&gt;150</title>
<path fill="none" stroke="#000000" d="M2365.845,-180C2374.6702,-180 2383.2276,-180 2391.0356,-180"/>
<polygon fill="#000000" stroke="#000000" points="2391.1733,-183.5001 2401.1733,-180 2391.1733,-176.5001 2391.1733,-183.5001"/>
</g>
<!-- Relu_7/Relu (op#7)\n input0 15\n output0 16 -->
<g id="node22" class="node">
<title>Relu_7/Relu (op#7)\n input0 15\n output0 16</title>
<g id="a_node22"><a xlink:href="javascript:alert('')" xlink:title="Relu_7/Relu (op#7)\n input0 15\n output0 16">
<polygon fill="#0f9d58" stroke="#0f9d58" points="2646.4426,-206.5 2491.4426,-206.5 2491.4426,-153.5 2646.4426,-153.5 2646.4426,-206.5"/>
<text text-anchor="middle" x="2568.9426" y="-191.3" font-family="Times,serif" font-size="14.00" fill="#ffffff">Relu_7/Relu (op#7)</text>
<text text-anchor="middle" x="2568.9426" y="-176.3" font-family="Times,serif" font-size="14.00" fill="#ffffff"> input0 15</text>
<text text-anchor="middle" x="2568.9426" y="-161.3" font-family="Times,serif" font-size="14.00" fill="#ffffff"> output0 16</text>
</a>
</g>
</g>
<!-- 150&#45;&gt;Relu_7/Relu (op#7)\n input0 15\n output0 16 -->
<g id="edge21" class="edge">
<title>150&#45;&gt;Relu_7/Relu (op#7)\n input0 15\n output0 16</title>
<path fill="none" stroke="#000000" d="M2455.5324,-180C2463.2038,-180 2471.9963,-180 2481.2178,-180"/>
<polygon fill="#000000" stroke="#000000" points="2481.3597,-183.5001 2491.3597,-180 2481.3596,-176.5001 2481.3597,-183.5001"/>
</g>
<!-- fc1.weight0 -->
<g id="node20" class="node">
<title>fc1.weight0</title>
<polygon fill="none" stroke="#000000" points="2145.6647,-226.5442 2145.6647,-241.4558 2107.6217,-252 2053.8209,-252 2015.7779,-241.4558 2015.7779,-226.5442 2053.8209,-216 2107.6217,-216 2145.6647,-226.5442"/>
<text text-anchor="middle" x="2080.7213" y="-230.3" font-family="Times,serif" font-size="14.00" fill="#000000">fc1.weight</text>
</g>
<!-- fc1.weight0&#45;&gt;Gemm_6/Gemm (op#6)\n input0 14\n input1 fc1.weight\n input2 fc1.bias\n output0 15 -->
<g id="edge19" class="edge">
<title>fc1.weight0&#45;&gt;Gemm_6/Gemm (op#6)\n input0 14\n input1 fc1.weight\n input2 fc1.bias\n output0 15</title>
<path fill="none" stroke="#000000" d="M2126.3936,-221.2028C2140.0359,-217.3802 2155.5731,-213.0267 2171.3164,-208.6155"/>
<polygon fill="#000000" stroke="#000000" points="2172.4454,-211.934 2181.1302,-205.8657 2170.5567,-205.1936 2172.4454,-211.934"/>
</g>
<!-- fc1.bias0 -->
<g id="node21" class="node">
<title>fc1.bias0</title>
<polygon fill="none" stroke="#000000" points="2132.2213,-172.5442 2132.2213,-187.4558 2102.0533,-198 2059.3893,-198 2029.2213,-187.4558 2029.2213,-172.5442 2059.3893,-162 2102.0533,-162 2132.2213,-172.5442"/>
<text text-anchor="middle" x="2080.7213" y="-176.3" font-family="Times,serif" font-size="14.00" fill="#000000">fc1.bias</text>
</g>
<!-- fc1.bias0&#45;&gt;Gemm_6/Gemm (op#6)\n input0 14\n input1 fc1.weight\n input2 fc1.bias\n output0 15 -->
<g id="edge20" class="edge">
<title>fc1.bias0&#45;&gt;Gemm_6/Gemm (op#6)\n input0 14\n input1 fc1.weight\n input2 fc1.bias\n output0 15</title>
<path fill="none" stroke="#000000" d="M2132.3671,-180C2144.3617,-180 2157.544,-180 2170.8854,-180"/>
<polygon fill="#000000" stroke="#000000" points="2171.1016,-183.5001 2181.1016,-180 2171.1016,-176.5001 2171.1016,-183.5001"/>
</g>
<!-- 160 -->
<g id="node23" class="node">
<title>160</title>
<polygon fill="none" stroke="#000000" points="2774.1639,-172.5442 2774.1639,-187.4558 2758.3477,-198 2735.9802,-198 2720.1639,-187.4558 2720.1639,-172.5442 2735.9802,-162 2758.3477,-162 2774.1639,-172.5442"/>
<text text-anchor="middle" x="2747.1639" y="-176.3" font-family="Times,serif" font-size="14.00" fill="#000000">16</text>
</g>
<!-- Relu_7/Relu (op#7)\n input0 15\n output0 16&#45;&gt;160 -->
<g id="edge22" class="edge">
<title>Relu_7/Relu (op#7)\n input0 15\n output0 16&#45;&gt;160</title>
<path fill="none" stroke="#000000" d="M2646.5946,-180C2668.6529,-180 2691.6637,-180 2710.0989,-180"/>
<polygon fill="#000000" stroke="#000000" points="2710.1081,-183.5001 2720.1081,-180 2710.108,-176.5001 2710.1081,-183.5001"/>
</g>
<!-- Gemm_8/Gemm (op#8)\n input0 16\n input1 fc2.weight\n input2 fc2.bias\n output0 17 -->
<g id="node24" class="node">
<title>Gemm_8/Gemm (op#8)\n input0 16\n input1 fc2.weight\n input2 fc2.bias\n output0 17</title>
<g id="a_node24"><a xlink:href="javascript:alert('')" xlink:title="Gemm_8/Gemm (op#8)\n input0 16\n input1 fc2.weight\n input2 fc2.bias\n output0 17">
<polygon fill="#0f9d58" stroke="#0f9d58" points="3031.8852,-275.5 2847.8852,-275.5 2847.8852,-192.5 3031.8852,-192.5 3031.8852,-275.5"/>
<text text-anchor="middle" x="2939.8852" y="-260.3" font-family="Times,serif" font-size="14.00" fill="#ffffff">Gemm_8/Gemm (op#8)</text>
<text text-anchor="middle" x="2939.8852" y="-245.3" font-family="Times,serif" font-size="14.00" fill="#ffffff"> input0 16</text>
<text text-anchor="middle" x="2939.8852" y="-230.3" font-family="Times,serif" font-size="14.00" fill="#ffffff"> input1 fc2.weight</text>
<text text-anchor="middle" x="2939.8852" y="-215.3" font-family="Times,serif" font-size="14.00" fill="#ffffff"> input2 fc2.bias</text>
<text text-anchor="middle" x="2939.8852" y="-200.3" font-family="Times,serif" font-size="14.00" fill="#ffffff"> output0 17</text>
</a>
</g>
</g>
<!-- 160&#45;&gt;Gemm_8/Gemm (op#8)\n input0 16\n input1 fc2.weight\n input2 fc2.bias\n output0 17 -->
<g id="edge23" class="edge">
<title>160&#45;&gt;Gemm_8/Gemm (op#8)\n input0 16\n input1 fc2.weight\n input2 fc2.bias\n output0 17</title>
<path fill="none" stroke="#000000" d="M2774.3674,-187.6224C2791.3293,-192.375 2814.3336,-198.8208 2837.7925,-205.3939"/>
<polygon fill="#000000" stroke="#000000" points="2836.9266,-208.786 2847.5001,-208.1139 2838.8153,-202.0456 2836.9266,-208.786"/>
</g>
<!-- 170 -->
<g id="node25" class="node">
<title>170</title>
<polygon fill="none" stroke="#000000" points="3121.8852,-226.5442 3121.8852,-241.4558 3106.069,-252 3083.7015,-252 3067.8852,-241.4558 3067.8852,-226.5442 3083.7015,-216 3106.069,-216 3121.8852,-226.5442"/>
<text text-anchor="middle" x="3094.8852" y="-230.3" font-family="Times,serif" font-size="14.00" fill="#000000">17</text>
</g>
<!-- Gemm_8/Gemm (op#8)\n input0 16\n input1 fc2.weight\n input2 fc2.bias\n output0 17&#45;&gt;170 -->
<g id="edge24" class="edge">
<title>Gemm_8/Gemm (op#8)\n input0 16\n input1 fc2.weight\n input2 fc2.bias\n output0 17&#45;&gt;170</title>
<path fill="none" stroke="#000000" d="M3032.2876,-234C3041.1128,-234 3049.6702,-234 3057.4782,-234"/>
<polygon fill="#000000" stroke="#000000" points="3057.616,-237.5001 3067.6159,-234 3057.6159,-230.5001 3057.616,-237.5001"/>
</g>
<!-- LogSoftmax_9/LogSoftmax (op#9)\n input0 17\n output0 18 -->
<g id="node28" class="node">
<title>LogSoftmax_9/LogSoftmax (op#9)\n input0 17\n output0 18</title>
<g id="a_node28"><a xlink:href="javascript:alert('')" xlink:title="LogSoftmax_9/LogSoftmax (op#9)\n input0 17\n output0 18">
<polygon fill="#0f9d58" stroke="#0f9d58" points="3420.8852,-260.5 3157.8852,-260.5 3157.8852,-207.5 3420.8852,-207.5 3420.8852,-260.5"/>
<text text-anchor="middle" x="3289.3852" y="-245.3" font-family="Times,serif" font-size="14.00" fill="#ffffff">LogSoftmax_9/LogSoftmax (op#9)</text>
<text text-anchor="middle" x="3289.3852" y="-230.3" font-family="Times,serif" font-size="14.00" fill="#ffffff"> input0 17</text>
<text text-anchor="middle" x="3289.3852" y="-215.3" font-family="Times,serif" font-size="14.00" fill="#ffffff"> output0 18</text>
</a>
</g>
</g>
<!-- 170&#45;&gt;LogSoftmax_9/LogSoftmax (op#9)\n input0 17\n output0 18 -->
<g id="edge27" class="edge">
<title>170&#45;&gt;LogSoftmax_9/LogSoftmax (op#9)\n input0 17\n output0 18</title>
<path fill="none" stroke="#000000" d="M3121.9296,-234C3129.4443,-234 3138.1564,-234 3147.5808,-234"/>
<polygon fill="#000000" stroke="#000000" points="3147.6394,-237.5001 3157.6394,-234 3147.6394,-230.5001 3147.6394,-237.5001"/>
</g>
<!-- fc2.weight0 -->
<g id="node26" class="node">
<title>fc2.weight0</title>
<polygon fill="none" stroke="#000000" points="2812.1073,-280.5442 2812.1073,-295.4558 2774.0644,-306 2720.2635,-306 2682.2206,-295.4558 2682.2206,-280.5442 2720.2635,-270 2774.0644,-270 2812.1073,-280.5442"/>
<text text-anchor="middle" x="2747.1639" y="-284.3" font-family="Times,serif" font-size="14.00" fill="#000000">fc2.weight</text>
</g>
<!-- fc2.weight0&#45;&gt;Gemm_8/Gemm (op#8)\n input0 16\n input1 fc2.weight\n input2 fc2.bias\n output0 17 -->
<g id="edge25" class="edge">
<title>fc2.weight0&#45;&gt;Gemm_8/Gemm (op#8)\n input0 16\n input1 fc2.weight\n input2 fc2.bias\n output0 17</title>
<path fill="none" stroke="#000000" d="M2792.8362,-275.2028C2806.4785,-271.3802 2822.0158,-267.0267 2837.759,-262.6155"/>
<polygon fill="#000000" stroke="#000000" points="2838.8881,-265.934 2847.5729,-259.8657 2836.9994,-259.1936 2838.8881,-265.934"/>
</g>
<!-- fc2.bias0 -->
<g id="node27" class="node">
<title>fc2.bias0</title>
<polygon fill="none" stroke="#000000" points="2798.6639,-226.5442 2798.6639,-241.4558 2768.4959,-252 2725.8319,-252 2695.6639,-241.4558 2695.6639,-226.5442 2725.8319,-216 2768.4959,-216 2798.6639,-226.5442"/>
<text text-anchor="middle" x="2747.1639" y="-230.3" font-family="Times,serif" font-size="14.00" fill="#000000">fc2.bias</text>
</g>
<!-- fc2.bias0&#45;&gt;Gemm_8/Gemm (op#8)\n input0 16\n input1 fc2.weight\n input2 fc2.bias\n output0 17 -->
<g id="edge26" class="edge">
<title>fc2.bias0&#45;&gt;Gemm_8/Gemm (op#8)\n input0 16\n input1 fc2.weight\n input2 fc2.bias\n output0 17</title>
<path fill="none" stroke="#000000" d="M2798.8097,-234C2810.8043,-234 2823.9866,-234 2837.328,-234"/>
<polygon fill="#000000" stroke="#000000" points="2837.5442,-237.5001 2847.5442,-234 2837.5442,-230.5001 2837.5442,-237.5001"/>
</g>
<!-- 180 -->
<g id="node29" class="node">
<title>180</title>
<polygon fill="none" stroke="#000000" points="3510.8852,-226.5442 3510.8852,-241.4558 3495.069,-252 3472.7015,-252 3456.8852,-241.4558 3456.8852,-226.5442 3472.7015,-216 3495.069,-216 3510.8852,-226.5442"/>
<text text-anchor="middle" x="3483.8852" y="-230.3" font-family="Times,serif" font-size="14.00" fill="#000000">18</text>
</g>
<!-- LogSoftmax_9/LogSoftmax (op#9)\n input0 17\n output0 18&#45;&gt;180 -->
<g id="edge28" class="edge">
<title>LogSoftmax_9/LogSoftmax (op#9)\n input0 17\n output0 18&#45;&gt;180</title>
<path fill="none" stroke="#000000" d="M3421.0053,-234C3430.1671,-234 3438.8618,-234 3446.7008,-234"/>
<polygon fill="#000000" stroke="#000000" points="3446.8233,-237.5001 3456.8233,-234 3446.8232,-230.5001 3446.8233,-237.5001"/>
</g>
</g>
</svg>
